# xmcd CD database file
#
# Track frame offsets:
#	150
#	21933
#	40195
#	62465
#	84653
#	107420
#	124155
#	140983
#
# Disc length: 2464 seconds
#
# Revision: 15
# Processed by: cddbd v1.5.2PL0 Copyright (c) Steve Scherf et al.
# Submitted via: CDex 2.14
#
DISCID=69099e08
DTITLE=Roberta Flack - 1973 - Killing Me Softly
DYEAR=1973
DGENRE=Soul
TTITLE0=Killing Me Softly With His Song
TTITLE1=Jesse
TTITLE2=No Tears (In The End)
TTITLE3=I'm The Girl
TTITLE4=River
TTITLE5=Conversation Love
TTITLE6=When You Smile
TTITLE7=Suzanne
EXTD=MARO\n YEAR: 1973
EXTT0=
EXTT1=
EXTT2=
EXTT3=
EXTT4=
EXTT5=
EXTT6=
EXTT7=
PLAYORDER=
